# xmcd
#
# Track frame offsets: 
#        150
#        22610
#        71227
#        107656
#        157486
#        171129
#        220113
#
# Disc length: 3414 seconds
#
# Revision: 1
# Processed by: cddbd v1.5.2PL0 Copyright (c) Steve Scherf et al.
# Submitted via: ExactAudioCopy v0.95b4
#
DISCID=5c0d5407
DTITLE=Arturo O'Farrill - Live in Brooklyn
DYEAR=2005
DGENRE=Jazz
TTITLE0=Vieques
TTITLE1=Walking Batterie Woman
TTITLE2=Peace
TTITLE3=Footprints
TTITLE4=Utviklinsang
TTITLE5=In a Sentimental Mood
TTITLE6=Well You Needn't
EXTD=
EXTT0=
EXTT1=
EXTT2=
EXTT3=
EXTT4=
EXTT5=
EXTT6=
PLAYORDER=
